G04 EAGLE Gerber RS-274X export*
G75*
%MOMM*%
%FSLAX34Y34*%
%LPD*%
%INCream TOP*%
%IPPOS*%
%AMOC8*
5,1,8,0,0,1.08239X$1,22.5*%
G01*
%ADD10R,0.200000X1.600000*%
%ADD11R,1.600000X0.200000*%
%ADD12R,1.100000X1.400000*%
%ADD13R,1.300000X2.200000*%
%ADD14R,0.900000X0.700000*%
%ADD15R,0.700000X0.900000*%
%ADD16R,0.700000X1.000000*%
%ADD17R,1.450000X1.200000*%
%ADD18R,1.000000X0.700000*%
%ADD19R,1.400000X0.900000*%
%ADD20R,1.150000X1.200000*%
%ADD21R,1.200000X0.900000*%
%ADD22R,2.400000X1.500000*%
%ADD23R,1.100000X1.000000*%
%ADD24R,1.000000X1.100000*%
%ADD25R,2.463800X0.762000*%
%ADD26R,1.000000X0.600000*%
%ADD27R,1.016000X1.200000*%
%ADD28R,0.550000X1.200000*%
%ADD29R,3.400000X1.100000*%
%ADD30R,1.600200X1.168400*%
%ADD31R,1.000000X1.000000*%
%ADD32R,1.300000X0.450000*%


D10*
X168000Y264000D03*
X172000Y264000D03*
X176000Y264000D03*
X180000Y264000D03*
X184000Y264000D03*
X188000Y264000D03*
X192000Y264000D03*
X196000Y264000D03*
X200000Y264000D03*
X204000Y264000D03*
X208000Y264000D03*
X212000Y264000D03*
X216000Y264000D03*
X220000Y264000D03*
X224000Y264000D03*
X228000Y264000D03*
X232000Y264000D03*
X236000Y264000D03*
X240000Y264000D03*
X244000Y264000D03*
X248000Y264000D03*
X252000Y264000D03*
X256000Y264000D03*
X260000Y264000D03*
X264000Y264000D03*
X268000Y264000D03*
X272000Y264000D03*
X276000Y264000D03*
X280000Y264000D03*
X284000Y264000D03*
X288000Y264000D03*
X292000Y264000D03*
D11*
X306000Y278000D03*
X306000Y282000D03*
X306000Y286000D03*
X306000Y290000D03*
X306000Y294000D03*
X306000Y298000D03*
X306000Y302000D03*
X306000Y306000D03*
X306000Y310000D03*
X306000Y314000D03*
X306000Y318000D03*
X306000Y322000D03*
X306000Y326000D03*
X306000Y330000D03*
X306000Y334000D03*
X306000Y338000D03*
X306000Y342000D03*
X306000Y346000D03*
X306000Y350000D03*
X306000Y354000D03*
X306000Y358000D03*
X306000Y362000D03*
X306000Y366000D03*
X306000Y370000D03*
X306000Y374000D03*
X306000Y378000D03*
X306000Y382000D03*
X306000Y386000D03*
X306000Y390000D03*
X306000Y394000D03*
X306000Y398000D03*
X306000Y402000D03*
D10*
X292000Y416000D03*
X288000Y416000D03*
X284000Y416000D03*
X280000Y416000D03*
X276000Y416000D03*
X272000Y416000D03*
X268000Y416000D03*
X264000Y416000D03*
X260000Y416000D03*
X256000Y416000D03*
X252000Y416000D03*
X248000Y416000D03*
X244000Y416000D03*
X240000Y416000D03*
X236000Y416000D03*
X232000Y416000D03*
X228000Y416000D03*
X224000Y416000D03*
X220000Y416000D03*
X216000Y416000D03*
X212000Y416000D03*
X208000Y416000D03*
X204000Y416000D03*
X200000Y416000D03*
X196000Y416000D03*
X192000Y416000D03*
X188000Y416000D03*
X184000Y416000D03*
X180000Y416000D03*
X176000Y416000D03*
X172000Y416000D03*
X168000Y416000D03*
D11*
X154000Y402000D03*
X154000Y398000D03*
X154000Y394000D03*
X154000Y390000D03*
X154000Y386000D03*
X154000Y382000D03*
X154000Y378000D03*
X154000Y374000D03*
X154000Y370000D03*
X154000Y366000D03*
X154000Y362000D03*
X154000Y358000D03*
X154000Y354000D03*
X154000Y350000D03*
X154000Y346000D03*
X154000Y342000D03*
X154000Y338000D03*
X154000Y334000D03*
X154000Y330000D03*
X154000Y326000D03*
X154000Y322000D03*
X154000Y318000D03*
X154000Y314000D03*
X154000Y310000D03*
X154000Y306000D03*
X154000Y302000D03*
X154000Y298000D03*
X154000Y294000D03*
X154000Y290000D03*
X154000Y286000D03*
X154000Y282000D03*
X154000Y278000D03*
D12*
X359000Y425500D03*
X343000Y425500D03*
X343000Y455500D03*
X359000Y455500D03*
D13*
X14000Y481500D03*
X56000Y481500D03*
D14*
X56500Y502000D03*
X56500Y515000D03*
X14000Y502000D03*
X14000Y515000D03*
D15*
X367000Y408000D03*
X380000Y408000D03*
D14*
X372000Y435000D03*
X372000Y422000D03*
D16*
X34500Y265850D03*
X45500Y265850D03*
X56500Y265850D03*
X67500Y265850D03*
X78500Y265850D03*
X89500Y265850D03*
X100500Y265850D03*
X111500Y265850D03*
D17*
X18250Y280750D03*
D18*
X16000Y292250D03*
D19*
X18000Y303750D03*
D20*
X122250Y276350D03*
X122250Y302250D03*
D21*
X747500Y280500D03*
X719500Y280500D03*
X747500Y263500D03*
X719500Y263500D03*
D14*
X684500Y276500D03*
X684500Y263500D03*
X673500Y276500D03*
X673500Y263500D03*
X662500Y276500D03*
X662500Y263500D03*
D22*
X828700Y75900D03*
X828700Y130900D03*
D23*
X755300Y119800D03*
X772300Y119800D03*
X787000Y63900D03*
X770000Y63900D03*
D24*
X734500Y106400D03*
X717500Y106400D03*
X717500Y71400D03*
X734500Y71400D03*
X734500Y88900D03*
X717500Y88900D03*
X717500Y53900D03*
X734500Y53900D03*
D25*
X798764Y29000D03*
X765236Y29000D03*
X771264Y154000D03*
X737736Y154000D03*
D24*
X794500Y123000D03*
X794500Y140000D03*
D26*
X755005Y93000D03*
X776995Y102500D03*
X776995Y83500D03*
X755005Y102500D03*
X776995Y93000D03*
X755005Y83500D03*
D22*
X495700Y79900D03*
X495700Y134900D03*
D23*
X422300Y123800D03*
X439300Y123800D03*
X454000Y67900D03*
X437000Y67900D03*
D24*
X401500Y110400D03*
X384500Y110400D03*
X384500Y75400D03*
X401500Y75400D03*
X401500Y92900D03*
X384500Y92900D03*
X384500Y57900D03*
X401500Y57900D03*
D25*
X465764Y33000D03*
X432236Y33000D03*
X438264Y158000D03*
X404736Y158000D03*
D24*
X461500Y127000D03*
X461500Y144000D03*
D26*
X422005Y97000D03*
X443995Y106500D03*
X443995Y87500D03*
X422005Y106500D03*
X443995Y97000D03*
X422005Y87500D03*
D22*
X204200Y86900D03*
X204200Y141900D03*
D23*
X130800Y130800D03*
X147800Y130800D03*
X162500Y74900D03*
X145500Y74900D03*
D24*
X110000Y117400D03*
X93000Y117400D03*
X93000Y82400D03*
X110000Y82400D03*
X110000Y99900D03*
X93000Y99900D03*
X93000Y64900D03*
X110000Y64900D03*
D25*
X174264Y40000D03*
X140736Y40000D03*
X146764Y165000D03*
X113236Y165000D03*
D24*
X170000Y134000D03*
X170000Y151000D03*
D26*
X130505Y104000D03*
X152495Y113500D03*
X152495Y94500D03*
X130505Y113500D03*
X152495Y104000D03*
X130505Y94500D03*
D15*
X134000Y408000D03*
X121000Y408000D03*
D21*
X749500Y230000D03*
X721500Y230000D03*
X749500Y213000D03*
X721500Y213000D03*
D14*
X665000Y228000D03*
X665000Y215000D03*
X675500Y228000D03*
X675500Y215000D03*
X686500Y228000D03*
X686500Y215000D03*
X86000Y135500D03*
X86000Y148500D03*
X101000Y244000D03*
X101000Y231000D03*
X114500Y244000D03*
X114500Y231000D03*
X29500Y244500D03*
X29500Y231500D03*
X42000Y244500D03*
X42000Y231500D03*
X55500Y244500D03*
X55500Y231500D03*
X78500Y229500D03*
X78500Y216500D03*
D23*
X70000Y242500D03*
X87000Y242500D03*
X50000Y99000D03*
X33000Y99000D03*
D15*
X576000Y274500D03*
X563000Y274500D03*
X576000Y294500D03*
X563000Y294500D03*
X576000Y317000D03*
X563000Y317000D03*
X576000Y337000D03*
X563000Y337000D03*
D23*
X432000Y343500D03*
X449000Y343500D03*
X432000Y359000D03*
X449000Y359000D03*
X327000Y404500D03*
X344000Y404500D03*
D24*
X301000Y437000D03*
X301000Y454000D03*
X285500Y437000D03*
X285500Y454000D03*
D23*
X327000Y389000D03*
X344000Y389000D03*
X212000Y241500D03*
X229000Y241500D03*
X280500Y241500D03*
X297500Y241500D03*
X327000Y346000D03*
X344000Y346000D03*
X327000Y373500D03*
X344000Y373500D03*
D27*
X440500Y307400D03*
X431000Y328600D03*
X450000Y328600D03*
D28*
X954000Y92000D03*
X944500Y92000D03*
X935000Y92000D03*
X935000Y66000D03*
X954000Y66000D03*
D29*
X944500Y106000D03*
X944500Y136000D03*
D14*
X966000Y51500D03*
X966000Y38500D03*
X964500Y72500D03*
X964500Y85500D03*
D24*
X916500Y118500D03*
X916500Y135500D03*
X952500Y51500D03*
X952500Y34500D03*
X900500Y118500D03*
X900500Y135500D03*
X922500Y66500D03*
X922500Y83500D03*
D21*
X747000Y331000D03*
X719000Y331000D03*
X747000Y314000D03*
X719000Y314000D03*
D14*
X662000Y329000D03*
X662000Y316000D03*
X673000Y329000D03*
X673000Y316000D03*
X684000Y329000D03*
X684000Y316000D03*
D30*
X898500Y159380D03*
X898500Y174620D03*
X824500Y165380D03*
X824500Y180620D03*
X491500Y169380D03*
X491500Y184620D03*
X200000Y176380D03*
X200000Y191620D03*
D28*
X309500Y99000D03*
X300000Y99000D03*
X290500Y99000D03*
X290500Y73000D03*
X309500Y73000D03*
D29*
X300000Y113000D03*
X300000Y143000D03*
D14*
X321000Y58000D03*
X321000Y45000D03*
X320000Y79500D03*
X320000Y92500D03*
D24*
X272000Y125500D03*
X272000Y142500D03*
X308000Y58500D03*
X308000Y41500D03*
X256000Y125500D03*
X256000Y142500D03*
X278000Y73500D03*
X278000Y90500D03*
D30*
X254000Y166380D03*
X254000Y181620D03*
D28*
X615000Y98500D03*
X605500Y98500D03*
X596000Y98500D03*
X596000Y72500D03*
X615000Y72500D03*
D29*
X605500Y112500D03*
X605500Y142500D03*
D14*
X626500Y57000D03*
X626500Y44000D03*
X625500Y79000D03*
X625500Y92000D03*
D24*
X577500Y125000D03*
X577500Y142000D03*
X613500Y58000D03*
X613500Y41000D03*
X561500Y125000D03*
X561500Y142000D03*
X583500Y73000D03*
X583500Y90000D03*
D30*
X559500Y165880D03*
X559500Y181120D03*
D14*
X410000Y303500D03*
X410000Y316500D03*
D23*
X911500Y541000D03*
X894500Y541000D03*
D24*
X932500Y281000D03*
X932500Y264000D03*
D15*
X681000Y522500D03*
X694000Y522500D03*
X694000Y510000D03*
X681000Y510000D03*
X694000Y497500D03*
X681000Y497500D03*
X694000Y432500D03*
X681000Y432500D03*
D24*
X696000Y465000D03*
X679000Y465000D03*
D23*
X679000Y447500D03*
X696000Y447500D03*
X679000Y482500D03*
X696000Y482500D03*
D15*
X111000Y442500D03*
X124000Y442500D03*
D31*
X927500Y404500D03*
X927500Y420500D03*
X967500Y420500D03*
X967500Y404500D03*
X927500Y352000D03*
X927500Y368000D03*
X967500Y368000D03*
X967500Y352000D03*
X927500Y459500D03*
X927500Y475500D03*
X967500Y475500D03*
X967500Y459500D03*
D32*
X63000Y170500D03*
X63000Y164000D03*
X63000Y157500D03*
X63000Y151000D03*
X63000Y144500D03*
M02*
