G04 EAGLE Gerber RS-274X export*
G75*
%MOMM*%
%FSLAX34Y34*%
%LPD*%
%INDimension*%
%IPPOS*%
%AMOC8*
5,1,8,0,0,1.08239X$1,22.5*%
G01*
%ADD10C,0.000000*%


D10*
X0Y0D02*
X1000000Y0D01*
X1000000Y600000D01*
X0Y600000D01*
X0Y0D01*
X615900Y535000D02*
X615905Y535399D01*
X615920Y535797D01*
X615944Y536195D01*
X615978Y536593D01*
X616022Y536989D01*
X616076Y537384D01*
X616139Y537778D01*
X616212Y538170D01*
X616295Y538560D01*
X616387Y538948D01*
X616489Y539334D01*
X616600Y539717D01*
X616720Y540097D01*
X616850Y540474D01*
X616989Y540848D01*
X617137Y541219D01*
X617294Y541585D01*
X617460Y541948D01*
X617635Y542306D01*
X617819Y542660D01*
X618011Y543010D01*
X618212Y543354D01*
X618421Y543694D01*
X618639Y544028D01*
X618864Y544357D01*
X619098Y544680D01*
X619339Y544998D01*
X619589Y545309D01*
X619845Y545614D01*
X620110Y545913D01*
X620381Y546205D01*
X620660Y546490D01*
X620945Y546769D01*
X621237Y547040D01*
X621536Y547305D01*
X621841Y547561D01*
X622152Y547811D01*
X622470Y548052D01*
X622793Y548286D01*
X623122Y548511D01*
X623456Y548729D01*
X623796Y548938D01*
X624140Y549139D01*
X624490Y549331D01*
X624844Y549515D01*
X625202Y549690D01*
X625565Y549856D01*
X625931Y550013D01*
X626302Y550161D01*
X626676Y550300D01*
X627053Y550430D01*
X627433Y550550D01*
X627816Y550661D01*
X628202Y550763D01*
X628590Y550855D01*
X628980Y550938D01*
X629372Y551011D01*
X629766Y551074D01*
X630161Y551128D01*
X630557Y551172D01*
X630955Y551206D01*
X631353Y551230D01*
X631751Y551245D01*
X632150Y551250D01*
X632549Y551245D01*
X632947Y551230D01*
X633345Y551206D01*
X633743Y551172D01*
X634139Y551128D01*
X634534Y551074D01*
X634928Y551011D01*
X635320Y550938D01*
X635710Y550855D01*
X636098Y550763D01*
X636484Y550661D01*
X636867Y550550D01*
X637247Y550430D01*
X637624Y550300D01*
X637998Y550161D01*
X638369Y550013D01*
X638735Y549856D01*
X639098Y549690D01*
X639456Y549515D01*
X639810Y549331D01*
X640160Y549139D01*
X640504Y548938D01*
X640844Y548729D01*
X641178Y548511D01*
X641507Y548286D01*
X641830Y548052D01*
X642148Y547811D01*
X642459Y547561D01*
X642764Y547305D01*
X643063Y547040D01*
X643355Y546769D01*
X643640Y546490D01*
X643919Y546205D01*
X644190Y545913D01*
X644455Y545614D01*
X644711Y545309D01*
X644961Y544998D01*
X645202Y544680D01*
X645436Y544357D01*
X645661Y544028D01*
X645879Y543694D01*
X646088Y543354D01*
X646289Y543010D01*
X646481Y542660D01*
X646665Y542306D01*
X646840Y541948D01*
X647006Y541585D01*
X647163Y541219D01*
X647311Y540848D01*
X647450Y540474D01*
X647580Y540097D01*
X647700Y539717D01*
X647811Y539334D01*
X647913Y538948D01*
X648005Y538560D01*
X648088Y538170D01*
X648161Y537778D01*
X648224Y537384D01*
X648278Y536989D01*
X648322Y536593D01*
X648356Y536195D01*
X648380Y535797D01*
X648395Y535399D01*
X648400Y535000D01*
X648395Y534601D01*
X648380Y534203D01*
X648356Y533805D01*
X648322Y533407D01*
X648278Y533011D01*
X648224Y532616D01*
X648161Y532222D01*
X648088Y531830D01*
X648005Y531440D01*
X647913Y531052D01*
X647811Y530666D01*
X647700Y530283D01*
X647580Y529903D01*
X647450Y529526D01*
X647311Y529152D01*
X647163Y528781D01*
X647006Y528415D01*
X646840Y528052D01*
X646665Y527694D01*
X646481Y527340D01*
X646289Y526990D01*
X646088Y526646D01*
X645879Y526306D01*
X645661Y525972D01*
X645436Y525643D01*
X645202Y525320D01*
X644961Y525002D01*
X644711Y524691D01*
X644455Y524386D01*
X644190Y524087D01*
X643919Y523795D01*
X643640Y523510D01*
X643355Y523231D01*
X643063Y522960D01*
X642764Y522695D01*
X642459Y522439D01*
X642148Y522189D01*
X641830Y521948D01*
X641507Y521714D01*
X641178Y521489D01*
X640844Y521271D01*
X640504Y521062D01*
X640160Y520861D01*
X639810Y520669D01*
X639456Y520485D01*
X639098Y520310D01*
X638735Y520144D01*
X638369Y519987D01*
X637998Y519839D01*
X637624Y519700D01*
X637247Y519570D01*
X636867Y519450D01*
X636484Y519339D01*
X636098Y519237D01*
X635710Y519145D01*
X635320Y519062D01*
X634928Y518989D01*
X634534Y518926D01*
X634139Y518872D01*
X633743Y518828D01*
X633345Y518794D01*
X632947Y518770D01*
X632549Y518755D01*
X632150Y518750D01*
X631751Y518755D01*
X631353Y518770D01*
X630955Y518794D01*
X630557Y518828D01*
X630161Y518872D01*
X629766Y518926D01*
X629372Y518989D01*
X628980Y519062D01*
X628590Y519145D01*
X628202Y519237D01*
X627816Y519339D01*
X627433Y519450D01*
X627053Y519570D01*
X626676Y519700D01*
X626302Y519839D01*
X625931Y519987D01*
X625565Y520144D01*
X625202Y520310D01*
X624844Y520485D01*
X624490Y520669D01*
X624140Y520861D01*
X623796Y521062D01*
X623456Y521271D01*
X623122Y521489D01*
X622793Y521714D01*
X622470Y521948D01*
X622152Y522189D01*
X621841Y522439D01*
X621536Y522695D01*
X621237Y522960D01*
X620945Y523231D01*
X620660Y523510D01*
X620381Y523795D01*
X620110Y524087D01*
X619845Y524386D01*
X619589Y524691D01*
X619339Y525002D01*
X619098Y525320D01*
X618864Y525643D01*
X618639Y525972D01*
X618421Y526306D01*
X618212Y526646D01*
X618011Y526990D01*
X617819Y527340D01*
X617635Y527694D01*
X617460Y528052D01*
X617294Y528415D01*
X617137Y528781D01*
X616989Y529152D01*
X616850Y529526D01*
X616720Y529903D01*
X616600Y530283D01*
X616489Y530666D01*
X616387Y531052D01*
X616295Y531440D01*
X616212Y531830D01*
X616139Y532222D01*
X616076Y532616D01*
X616022Y533011D01*
X615978Y533407D01*
X615944Y533805D01*
X615920Y534203D01*
X615905Y534601D01*
X615900Y535000D01*
X501600Y535000D02*
X501605Y535399D01*
X501620Y535797D01*
X501644Y536195D01*
X501678Y536593D01*
X501722Y536989D01*
X501776Y537384D01*
X501839Y537778D01*
X501912Y538170D01*
X501995Y538560D01*
X502087Y538948D01*
X502189Y539334D01*
X502300Y539717D01*
X502420Y540097D01*
X502550Y540474D01*
X502689Y540848D01*
X502837Y541219D01*
X502994Y541585D01*
X503160Y541948D01*
X503335Y542306D01*
X503519Y542660D01*
X503711Y543010D01*
X503912Y543354D01*
X504121Y543694D01*
X504339Y544028D01*
X504564Y544357D01*
X504798Y544680D01*
X505039Y544998D01*
X505289Y545309D01*
X505545Y545614D01*
X505810Y545913D01*
X506081Y546205D01*
X506360Y546490D01*
X506645Y546769D01*
X506937Y547040D01*
X507236Y547305D01*
X507541Y547561D01*
X507852Y547811D01*
X508170Y548052D01*
X508493Y548286D01*
X508822Y548511D01*
X509156Y548729D01*
X509496Y548938D01*
X509840Y549139D01*
X510190Y549331D01*
X510544Y549515D01*
X510902Y549690D01*
X511265Y549856D01*
X511631Y550013D01*
X512002Y550161D01*
X512376Y550300D01*
X512753Y550430D01*
X513133Y550550D01*
X513516Y550661D01*
X513902Y550763D01*
X514290Y550855D01*
X514680Y550938D01*
X515072Y551011D01*
X515466Y551074D01*
X515861Y551128D01*
X516257Y551172D01*
X516655Y551206D01*
X517053Y551230D01*
X517451Y551245D01*
X517850Y551250D01*
X518249Y551245D01*
X518647Y551230D01*
X519045Y551206D01*
X519443Y551172D01*
X519839Y551128D01*
X520234Y551074D01*
X520628Y551011D01*
X521020Y550938D01*
X521410Y550855D01*
X521798Y550763D01*
X522184Y550661D01*
X522567Y550550D01*
X522947Y550430D01*
X523324Y550300D01*
X523698Y550161D01*
X524069Y550013D01*
X524435Y549856D01*
X524798Y549690D01*
X525156Y549515D01*
X525510Y549331D01*
X525860Y549139D01*
X526204Y548938D01*
X526544Y548729D01*
X526878Y548511D01*
X527207Y548286D01*
X527530Y548052D01*
X527848Y547811D01*
X528159Y547561D01*
X528464Y547305D01*
X528763Y547040D01*
X529055Y546769D01*
X529340Y546490D01*
X529619Y546205D01*
X529890Y545913D01*
X530155Y545614D01*
X530411Y545309D01*
X530661Y544998D01*
X530902Y544680D01*
X531136Y544357D01*
X531361Y544028D01*
X531579Y543694D01*
X531788Y543354D01*
X531989Y543010D01*
X532181Y542660D01*
X532365Y542306D01*
X532540Y541948D01*
X532706Y541585D01*
X532863Y541219D01*
X533011Y540848D01*
X533150Y540474D01*
X533280Y540097D01*
X533400Y539717D01*
X533511Y539334D01*
X533613Y538948D01*
X533705Y538560D01*
X533788Y538170D01*
X533861Y537778D01*
X533924Y537384D01*
X533978Y536989D01*
X534022Y536593D01*
X534056Y536195D01*
X534080Y535797D01*
X534095Y535399D01*
X534100Y535000D01*
X534095Y534601D01*
X534080Y534203D01*
X534056Y533805D01*
X534022Y533407D01*
X533978Y533011D01*
X533924Y532616D01*
X533861Y532222D01*
X533788Y531830D01*
X533705Y531440D01*
X533613Y531052D01*
X533511Y530666D01*
X533400Y530283D01*
X533280Y529903D01*
X533150Y529526D01*
X533011Y529152D01*
X532863Y528781D01*
X532706Y528415D01*
X532540Y528052D01*
X532365Y527694D01*
X532181Y527340D01*
X531989Y526990D01*
X531788Y526646D01*
X531579Y526306D01*
X531361Y525972D01*
X531136Y525643D01*
X530902Y525320D01*
X530661Y525002D01*
X530411Y524691D01*
X530155Y524386D01*
X529890Y524087D01*
X529619Y523795D01*
X529340Y523510D01*
X529055Y523231D01*
X528763Y522960D01*
X528464Y522695D01*
X528159Y522439D01*
X527848Y522189D01*
X527530Y521948D01*
X527207Y521714D01*
X526878Y521489D01*
X526544Y521271D01*
X526204Y521062D01*
X525860Y520861D01*
X525510Y520669D01*
X525156Y520485D01*
X524798Y520310D01*
X524435Y520144D01*
X524069Y519987D01*
X523698Y519839D01*
X523324Y519700D01*
X522947Y519570D01*
X522567Y519450D01*
X522184Y519339D01*
X521798Y519237D01*
X521410Y519145D01*
X521020Y519062D01*
X520628Y518989D01*
X520234Y518926D01*
X519839Y518872D01*
X519443Y518828D01*
X519045Y518794D01*
X518647Y518770D01*
X518249Y518755D01*
X517850Y518750D01*
X517451Y518755D01*
X517053Y518770D01*
X516655Y518794D01*
X516257Y518828D01*
X515861Y518872D01*
X515466Y518926D01*
X515072Y518989D01*
X514680Y519062D01*
X514290Y519145D01*
X513902Y519237D01*
X513516Y519339D01*
X513133Y519450D01*
X512753Y519570D01*
X512376Y519700D01*
X512002Y519839D01*
X511631Y519987D01*
X511265Y520144D01*
X510902Y520310D01*
X510544Y520485D01*
X510190Y520669D01*
X509840Y520861D01*
X509496Y521062D01*
X509156Y521271D01*
X508822Y521489D01*
X508493Y521714D01*
X508170Y521948D01*
X507852Y522189D01*
X507541Y522439D01*
X507236Y522695D01*
X506937Y522960D01*
X506645Y523231D01*
X506360Y523510D01*
X506081Y523795D01*
X505810Y524087D01*
X505545Y524386D01*
X505289Y524691D01*
X505039Y525002D01*
X504798Y525320D01*
X504564Y525643D01*
X504339Y525972D01*
X504121Y526306D01*
X503912Y526646D01*
X503711Y526990D01*
X503519Y527340D01*
X503335Y527694D01*
X503160Y528052D01*
X502994Y528415D01*
X502837Y528781D01*
X502689Y529152D01*
X502550Y529526D01*
X502420Y529903D01*
X502300Y530283D01*
X502189Y530666D01*
X502087Y531052D01*
X501995Y531440D01*
X501912Y531830D01*
X501839Y532222D01*
X501776Y532616D01*
X501722Y533011D01*
X501678Y533407D01*
X501644Y533805D01*
X501620Y534203D01*
X501605Y534601D01*
X501600Y535000D01*
X48500Y182500D02*
X48502Y182626D01*
X48508Y182752D01*
X48518Y182878D01*
X48532Y183004D01*
X48550Y183129D01*
X48572Y183253D01*
X48597Y183377D01*
X48627Y183500D01*
X48660Y183621D01*
X48698Y183742D01*
X48739Y183861D01*
X48784Y183980D01*
X48832Y184096D01*
X48884Y184211D01*
X48940Y184324D01*
X49000Y184436D01*
X49063Y184545D01*
X49129Y184653D01*
X49198Y184758D01*
X49271Y184861D01*
X49348Y184962D01*
X49427Y185060D01*
X49509Y185156D01*
X49595Y185249D01*
X49683Y185340D01*
X49774Y185427D01*
X49868Y185512D01*
X49964Y185593D01*
X50063Y185672D01*
X50164Y185747D01*
X50268Y185819D01*
X50374Y185888D01*
X50482Y185954D01*
X50592Y186016D01*
X50704Y186074D01*
X50817Y186129D01*
X50933Y186180D01*
X51050Y186228D01*
X51168Y186272D01*
X51288Y186312D01*
X51409Y186348D01*
X51531Y186381D01*
X51654Y186410D01*
X51778Y186434D01*
X51902Y186455D01*
X52027Y186472D01*
X52153Y186485D01*
X52279Y186494D01*
X52405Y186499D01*
X52532Y186500D01*
X52658Y186497D01*
X52784Y186490D01*
X52910Y186479D01*
X53035Y186464D01*
X53160Y186445D01*
X53284Y186422D01*
X53408Y186396D01*
X53530Y186365D01*
X53652Y186331D01*
X53772Y186292D01*
X53891Y186250D01*
X54009Y186205D01*
X54125Y186155D01*
X54240Y186102D01*
X54352Y186045D01*
X54463Y185985D01*
X54572Y185921D01*
X54679Y185854D01*
X54784Y185784D01*
X54887Y185710D01*
X54987Y185633D01*
X55085Y185553D01*
X55180Y185470D01*
X55272Y185384D01*
X55362Y185295D01*
X55449Y185203D01*
X55532Y185109D01*
X55613Y185012D01*
X55691Y184912D01*
X55766Y184810D01*
X55837Y184706D01*
X55905Y184599D01*
X55969Y184491D01*
X56030Y184380D01*
X56088Y184268D01*
X56142Y184154D01*
X56192Y184038D01*
X56239Y183921D01*
X56282Y183802D01*
X56321Y183682D01*
X56357Y183561D01*
X56388Y183438D01*
X56416Y183315D01*
X56440Y183191D01*
X56460Y183066D01*
X56476Y182941D01*
X56488Y182815D01*
X56496Y182689D01*
X56500Y182563D01*
X56500Y182437D01*
X56496Y182311D01*
X56488Y182185D01*
X56476Y182059D01*
X56460Y181934D01*
X56440Y181809D01*
X56416Y181685D01*
X56388Y181562D01*
X56357Y181439D01*
X56321Y181318D01*
X56282Y181198D01*
X56239Y181079D01*
X56192Y180962D01*
X56142Y180846D01*
X56088Y180732D01*
X56030Y180620D01*
X55969Y180509D01*
X55905Y180401D01*
X55837Y180294D01*
X55766Y180190D01*
X55691Y180088D01*
X55613Y179988D01*
X55532Y179891D01*
X55449Y179797D01*
X55362Y179705D01*
X55272Y179616D01*
X55180Y179530D01*
X55085Y179447D01*
X54987Y179367D01*
X54887Y179290D01*
X54784Y179216D01*
X54679Y179146D01*
X54572Y179079D01*
X54463Y179015D01*
X54352Y178955D01*
X54240Y178898D01*
X54125Y178845D01*
X54009Y178795D01*
X53891Y178750D01*
X53772Y178708D01*
X53652Y178669D01*
X53530Y178635D01*
X53408Y178604D01*
X53284Y178578D01*
X53160Y178555D01*
X53035Y178536D01*
X52910Y178521D01*
X52784Y178510D01*
X52658Y178503D01*
X52532Y178500D01*
X52405Y178501D01*
X52279Y178506D01*
X52153Y178515D01*
X52027Y178528D01*
X51902Y178545D01*
X51778Y178566D01*
X51654Y178590D01*
X51531Y178619D01*
X51409Y178652D01*
X51288Y178688D01*
X51168Y178728D01*
X51050Y178772D01*
X50933Y178820D01*
X50817Y178871D01*
X50704Y178926D01*
X50592Y178984D01*
X50482Y179046D01*
X50374Y179112D01*
X50268Y179181D01*
X50164Y179253D01*
X50063Y179328D01*
X49964Y179407D01*
X49868Y179488D01*
X49774Y179573D01*
X49683Y179660D01*
X49595Y179751D01*
X49509Y179844D01*
X49427Y179940D01*
X49348Y180038D01*
X49271Y180139D01*
X49198Y180242D01*
X49129Y180347D01*
X49063Y180455D01*
X49000Y180564D01*
X48940Y180676D01*
X48884Y180789D01*
X48832Y180904D01*
X48784Y181020D01*
X48739Y181139D01*
X48698Y181258D01*
X48660Y181379D01*
X48627Y181500D01*
X48597Y181623D01*
X48572Y181747D01*
X48550Y181871D01*
X48532Y181996D01*
X48518Y182122D01*
X48508Y182248D01*
X48502Y182374D01*
X48500Y182500D01*
X48500Y132500D02*
X48502Y132626D01*
X48508Y132752D01*
X48518Y132878D01*
X48532Y133004D01*
X48550Y133129D01*
X48572Y133253D01*
X48597Y133377D01*
X48627Y133500D01*
X48660Y133621D01*
X48698Y133742D01*
X48739Y133861D01*
X48784Y133980D01*
X48832Y134096D01*
X48884Y134211D01*
X48940Y134324D01*
X49000Y134436D01*
X49063Y134545D01*
X49129Y134653D01*
X49198Y134758D01*
X49271Y134861D01*
X49348Y134962D01*
X49427Y135060D01*
X49509Y135156D01*
X49595Y135249D01*
X49683Y135340D01*
X49774Y135427D01*
X49868Y135512D01*
X49964Y135593D01*
X50063Y135672D01*
X50164Y135747D01*
X50268Y135819D01*
X50374Y135888D01*
X50482Y135954D01*
X50592Y136016D01*
X50704Y136074D01*
X50817Y136129D01*
X50933Y136180D01*
X51050Y136228D01*
X51168Y136272D01*
X51288Y136312D01*
X51409Y136348D01*
X51531Y136381D01*
X51654Y136410D01*
X51778Y136434D01*
X51902Y136455D01*
X52027Y136472D01*
X52153Y136485D01*
X52279Y136494D01*
X52405Y136499D01*
X52532Y136500D01*
X52658Y136497D01*
X52784Y136490D01*
X52910Y136479D01*
X53035Y136464D01*
X53160Y136445D01*
X53284Y136422D01*
X53408Y136396D01*
X53530Y136365D01*
X53652Y136331D01*
X53772Y136292D01*
X53891Y136250D01*
X54009Y136205D01*
X54125Y136155D01*
X54240Y136102D01*
X54352Y136045D01*
X54463Y135985D01*
X54572Y135921D01*
X54679Y135854D01*
X54784Y135784D01*
X54887Y135710D01*
X54987Y135633D01*
X55085Y135553D01*
X55180Y135470D01*
X55272Y135384D01*
X55362Y135295D01*
X55449Y135203D01*
X55532Y135109D01*
X55613Y135012D01*
X55691Y134912D01*
X55766Y134810D01*
X55837Y134706D01*
X55905Y134599D01*
X55969Y134491D01*
X56030Y134380D01*
X56088Y134268D01*
X56142Y134154D01*
X56192Y134038D01*
X56239Y133921D01*
X56282Y133802D01*
X56321Y133682D01*
X56357Y133561D01*
X56388Y133438D01*
X56416Y133315D01*
X56440Y133191D01*
X56460Y133066D01*
X56476Y132941D01*
X56488Y132815D01*
X56496Y132689D01*
X56500Y132563D01*
X56500Y132437D01*
X56496Y132311D01*
X56488Y132185D01*
X56476Y132059D01*
X56460Y131934D01*
X56440Y131809D01*
X56416Y131685D01*
X56388Y131562D01*
X56357Y131439D01*
X56321Y131318D01*
X56282Y131198D01*
X56239Y131079D01*
X56192Y130962D01*
X56142Y130846D01*
X56088Y130732D01*
X56030Y130620D01*
X55969Y130509D01*
X55905Y130401D01*
X55837Y130294D01*
X55766Y130190D01*
X55691Y130088D01*
X55613Y129988D01*
X55532Y129891D01*
X55449Y129797D01*
X55362Y129705D01*
X55272Y129616D01*
X55180Y129530D01*
X55085Y129447D01*
X54987Y129367D01*
X54887Y129290D01*
X54784Y129216D01*
X54679Y129146D01*
X54572Y129079D01*
X54463Y129015D01*
X54352Y128955D01*
X54240Y128898D01*
X54125Y128845D01*
X54009Y128795D01*
X53891Y128750D01*
X53772Y128708D01*
X53652Y128669D01*
X53530Y128635D01*
X53408Y128604D01*
X53284Y128578D01*
X53160Y128555D01*
X53035Y128536D01*
X52910Y128521D01*
X52784Y128510D01*
X52658Y128503D01*
X52532Y128500D01*
X52405Y128501D01*
X52279Y128506D01*
X52153Y128515D01*
X52027Y128528D01*
X51902Y128545D01*
X51778Y128566D01*
X51654Y128590D01*
X51531Y128619D01*
X51409Y128652D01*
X51288Y128688D01*
X51168Y128728D01*
X51050Y128772D01*
X50933Y128820D01*
X50817Y128871D01*
X50704Y128926D01*
X50592Y128984D01*
X50482Y129046D01*
X50374Y129112D01*
X50268Y129181D01*
X50164Y129253D01*
X50063Y129328D01*
X49964Y129407D01*
X49868Y129488D01*
X49774Y129573D01*
X49683Y129660D01*
X49595Y129751D01*
X49509Y129844D01*
X49427Y129940D01*
X49348Y130038D01*
X49271Y130139D01*
X49198Y130242D01*
X49129Y130347D01*
X49063Y130455D01*
X49000Y130564D01*
X48940Y130676D01*
X48884Y130789D01*
X48832Y130904D01*
X48784Y131020D01*
X48739Y131139D01*
X48698Y131258D01*
X48660Y131379D01*
X48627Y131500D01*
X48597Y131623D01*
X48572Y131747D01*
X48550Y131871D01*
X48532Y131996D01*
X48518Y132122D01*
X48508Y132248D01*
X48502Y132374D01*
X48500Y132500D01*
M02*
