M48
;GenerationSoftware,Autodesk,EAGLE,9.4.0*%
;CreationDate,2019-05-04T12:21:20Z*%
FMAT,2
ICI,OFF
METRIC,TZ,000.000
T11C0.350
T10C0.550
T9C0.800
T8C0.850
T7C0.890
T6C0.900
T5C1.000
T4C1.020
T3C1.630
T2C2.800
T1C3.250
%
G90
M71
T1
X63215Y53500
X51785Y53500
T2
X23000Y34000
T3
X65245Y50450
X49755Y50450
T4
X50875Y58400
X53415Y58400
X64125Y58400
X61585Y58400
T5
X62452Y28880
X96297Y29870
X96297Y27290
X96297Y24710
X91440Y57052
X88860Y57052
X86280Y57052
X83700Y57052
X62452Y34040
X62452Y31460
T6
X3000Y8200
X5000Y8200
T7
X61940Y44610
X60670Y47150
X59400Y44610
X58130Y47150
X55590Y47150
X54320Y44610
X53050Y47150
X56860Y44610
T8
X6300Y12025
X6300Y19475
T9
X5250Y13250
X5250Y18250
T10
X2500Y19625
X2500Y11875
T11
X20600Y31350
X24750Y37100
X35350Y34600
X35400Y38950
X35400Y40450
X30050Y45450
X28500Y45450
X5650Y52800
X1400Y52700
X4650Y38950
X4650Y36000
X5950Y42800
X19100Y46800
X21700Y46800
X22250Y48400
X24900Y48400
X26050Y50150
X28650Y50150
X12000Y31500
X29750Y49000
X2000Y10000
X1000Y11000
X1000Y10000
X1000Y9000
X1000Y8000
X1000Y7000
X2250Y7000
X2250Y6000
X1000Y6000
X4900Y14250
X750Y28000
X16750Y32350
X12000Y4000
X11250Y4000
X41250Y3250
X40500Y3250
X74750Y3000
X74000Y3000
X1000Y18250
X1000Y17250
X1000Y16250
X1000Y15250
X1000Y14250
X1000Y13250
X91300Y53100
X93250Y29000
X14500Y52750
X13250Y52750
X70750Y44750
X70750Y48250
X76750Y37750
X80000Y37750
X80000Y33500
X76750Y33500
X91750Y42000
X91750Y47500
X91750Y36750
X37500Y39250
X39550Y12290
X45550Y7790
X10400Y12990
X16400Y8490
X72850Y11890
X78850Y7390
X95400Y9200
X93450Y5500
X30950Y9900
X29000Y6200
X44050Y30100
X6750Y23100
X7450Y13100
X79500Y19950
X80500Y19950
X80500Y18950
X79500Y18950
X79500Y17950
X80550Y17950
X89400Y18950
X89400Y19950
X90400Y19950
X90400Y18950
X91400Y19950
X92400Y18950
X91400Y18950
X92450Y17950
X92400Y19950
X91400Y17950
X16800Y35100
X16800Y37250
X18300Y39900
X74850Y15640
X20100Y24100
X26900Y24050
X32700Y37250
X16950Y27900
X32700Y34600
X58700Y27450
X6750Y26585
X89550Y53100
X41000Y29500
X70750Y46500
X76000Y33250
X76250Y28000
X76250Y23000
X58550Y19450
X58600Y18450
X57550Y18450
X57550Y19450
X56550Y19450
X55550Y19450
X47450Y19500
X46450Y18500
X46450Y19500
X47500Y18500
X32700Y43400
X27950Y18500
X26900Y18500
X26900Y19500
X27900Y19500
X25900Y19500
X24900Y19500
X18450Y19900
X17450Y19900
X17400Y19000
X18450Y19000
X27900Y29150
X27850Y36850
X27800Y35000
X27850Y33400
X17900Y31350
X26400Y29250
X24300Y29200
X17950Y35750
X20000Y39000
X23250Y39000
X16650Y33100
X26750Y43550
X42250Y36000
X67300Y28650
X26750Y44300
X70000Y29250
X68450Y28700
X25750Y44350
X26975Y50150
X27725Y50150
X23175Y48400
X23925Y48400
X20025Y46800
X20775Y46800
X10750Y52250
X53520Y32730
X53275Y31950
X9782Y51718
X800Y31300
X54500Y34750
X10150Y10904
X16900Y13740
X39300Y10204
X46050Y13040
X72600Y9804
X79350Y12640
X51825Y29264
X67250Y34000
X52400Y29750
X68250Y33750
X70400Y49750
X70400Y51000
X69250Y42250
X66750Y44500
X70500Y52250
X29218Y30968
X45000Y28175
X76782Y39218
X80000Y39250
X29250Y31750
X45750Y28750
X76750Y40000
X80000Y40000
X9600Y14600
X17000Y39000
X23200Y30950
X26200Y32200
X19650Y32800
X19550Y34050
X35350Y37400
X30900Y24150
X24000Y24150
X44900Y37050
X45900Y35900
X31950Y10150
X96450Y9400
X91000Y8650
X89950Y8650
X89950Y10650
X91750Y10700
X26500Y9250
X25450Y9250
X25450Y11250
X27250Y11300
X57050Y9350
X56000Y9350
X56000Y11350
X57800Y11400
X62500Y10000
X8900Y23150
X65400Y27650
X12400Y14990
X12400Y15740
X12400Y16740
X41550Y14290
X41550Y15040
X41550Y16040
X74850Y13890
X74850Y14640
X21250Y40250
M30